<svg class="svg-icon" style="width: 1em; height: 1em;vertical-align: middle;fill: currentColor;overflow: hidden;" viewBox="0 0 1024 1024" version="1.1" xmlns="http://www.w3.org/2000/svg"><path d="M400 89.2H0v658.4h287.6v-272.8h230.4V204.4L400 89.2z m105.2 372.4H274.8v272.8H12.8V102h381.6l9.2 8.8 92 89.6 9.6 9.2v252z" fill="#4A555F" /><path d="M28 719.2V117.2h360.4L490 216v230.4H259.6v272.8z" fill="#E0E0E0" /><path d="M481.6 5.2h-400v96.8h312.8l9.2 8.8 92 89.6 9.6 9.2v205.2h12.8c0-30.8 25.2-55.6 55.6-55.6h26V120.4L481.6 5.2z m105.6 340.8h-12.8c-22.8 0-43.2 11.2-55.6 28.8V204.4L400 89.2H94.8V18.4h381.6l9.2 8.8 92 89.6 9.6 9.2v220z" fill="#4A555F" /><path d="M533.6 198l-127.6-124h-296V33.6h360.4L572 132.4v198.8c-14 0.4-27.2 4-38.4 10.4V198z" fill="#E0E0E0" /><path d="M600 474.8h-59.6v-58.4c0-22.4 18.4-40.8 40.8-40.8h18.8v99.2z m-46.4-13.2h33.6V388.8h-6c-15.2 0-27.6 12.4-27.6 27.6v45.2z" fill="#4A555F" /><path d="M900 731.2H398.8c-68.4 0-124-55.6-124-124v-145.6H1024v145.6c0 68.4-55.6 124-124 124zM287.6 474.8v132.8c0 61.2 49.6 110.8 110.8 110.8H900c61.2 0 110.8-49.6 110.8-110.8v-132.8H287.6z" fill="#4A555F" /><path d="M398.8 702.8c-52.8 0-95.6-42.8-95.6-95.6v-117.6H996v117.6c0 52.8-42.8 95.6-95.6 95.6H398.8z" fill="#FFD552" /><path d="M1024 1018.8H274.8V607.2h12.8c0 61.2 49.6 110.8 110.8 110.8H900c61.2 0 110.8-49.6 110.8-110.8h12.8v411.6z m-736.4-13.2h723.2v-343.2c-20.4 40.8-62.4 68.8-110.8 68.8H398.8c-48.4 0-90.4-28-110.8-68.8v343.2z" fill="#4A555F" /><path d="M420 798v30.8h17.6v161.6H302.8V708c24.8 23.6 58.8 38.4 95.6 38.4h39.2v52H420zM782 798v30.8h17.6v161.6h-300.8v-161.6h17.6v-30.8h-17.6v-52h126.8c4.4 9.2 13.6 15.2 24.4 15.2 10.8 0 20-6.4 24.4-15.2H800v52h-18zM996 708v282.8h-134.8v-161.6h17.6v-30.8h-17.6v-52h39.2c36.8 0 70.4-14.8 95.6-38.4z" fill="#FFD552" /><path d="M793.6 474.8h-48.4v-58.4c0-15.2-12.4-27.6-27.6-27.6h-136.4c-15.2 0-27.6 12.4-27.6 27.6v58.4h-48.4v-59.6c0-38 30.8-68.8 68.8-68.8h150.8c38 0 68.8 30.8 68.8 68.8v59.6z m-35.2-13.2h22.4v-46.8c0-30.8-25.2-56-55.6-56h-150.8c-30.8 0-55.6 25.2-55.6 55.6v46.8h22.4V416c0-22.4 18.4-40.8 40.8-40.8h136.4c22.4 0 40.8 18.4 40.8 40.8v45.6zM468.4 880.4c-20.4 0-37.2-16.8-37.2-37.2v-125.2h74.4v125.2c0 20.8-16.8 37.2-37.2 37.2z m-24.4-149.2v112.4c0 13.2 10.8 24 24 24s24-10.8 24-24v-112.4h-48z" fill="#4A555F" /><path d="M505.6 1018.8h-74.4v-300.4h74.4v300.4z m-61.6-13.2h48.4v-274.4H444v274.4z" fill="#4A555F" /><path d="M523.2 835.2h-109.6v-43.6h109.6v43.6z m-96.8-12.8h83.6v-17.6h-83.6v17.6z" fill="#4A555F" /><path d="M830.4 880.4c-20.4 0-37.2-16.8-37.2-37.2v-125.2h74.4v125.2c0 20.8-16.8 37.2-37.2 37.2z m-24-149.2v112.4c0 13.2 10.8 24 24 24s24-10.8 24-24v-112.4h-48z" fill="#4A555F" /><path d="M867.6 1018.8h-74.4v-300.4h74.4v300.4z m-61.2-13.2h48.4v-274.4h-48.4v274.4z" fill="#4A555F" /><path d="M885.2 835.2h-109.6v-43.6h109.6v43.6z m-96.4-12.8h83.6v-17.6h-83.6v17.6z" fill="#4A555F" /><path d="M650 768c-18.4 0-33.6-15.2-33.6-33.6v-16.4H684v16.4c0 18.4-15.2 33.6-34 33.6z m-20.4-36.8v3.2c0 11.2 9.2 20.8 20.8 20.8 11.2 0 20.8-9.2 20.8-20.8v-3.2h-41.6z" fill="#4A555F" /><path d="M485.6 116.8V27.2l92 89.6h-92z m-4-111.6h-9.2v124.4H600v-9.2L481.6 5.2z" fill="#4A555F" /><path d="M400 89.2h-9.2v124.4h127.6v-9.2L400 89.2z m3.6 111.2V110.8l92 89.6h-92z" fill="#4A555F" /><path d="M88.4 299.6h349.6v12.8H88.4z" fill="#4A555F" /><path d="M88.4 380.8h349.6v12.8H88.4z" fill="#4A555F" /><path d="M88.4 461.6h114.8v12.8H88.4z" fill="#4A555F" /><path d="M88.4 541.6h114.8v12.8H88.4z" fill="#4A555F" /><path d="M88.4 621.2h114.8v12.8H88.4z" fill="#4A555F" /><path d="M88.4 190.8h252.8v52.8H88.4z" fill="#F68F6F" /></svg>